<svg id="a4699393-6026-403b-908a-bc1a17c733cf" data-name="final logo" xmlns="http://www.w3.org/2000/svg" viewBox="0 0 246.75 73.22" fit="" height="100%" width="100%" preserveAspectRatio="xMidYMid meet" focusable="false"><title>pnc_4crev</title><polygon points="37.88 4.51 24.07 4.51 14.29 11.25 11.6 44.94 14.29 59.1 19.35 66.17 25.75 67.86 43.61 63.14 68.55 41.57 70.57 32.48 66.52 25.07 37.88 4.51" fill="#fff"></polygon><path d="M71.4,141.4a4,4,0,1,1,4-4A4,4,0,0,1,71.4,141.4Zm0-9a4.94,4.94,0,1,0,4.92,4.93A4.9,4.9,0,0,0,71.4,132.45Zm-.62,5.4h.33c1,0,.9.59.9,1.26a2.32,2.32,0,0,0,.18,1.11h1.27a7.24,7.24,0,0,1-.15-1.68,1,1,0,0,0-1.12-1.11v0a1.25,1.25,0,0,0,1.15-1.4,1.36,1.36,0,0,0-1.46-1.51h-2.4v5.73h1.3Zm0-2.41h.59c.41,0,.67.21.67.76,0,.37-.16.84-.67.84h-.59Z" transform="translate(-4.08 -69.74)" fill="#f58025"></path><path d="M58.81,111.54H51.25a4,4,0,0,0-.49-3.46L38.43,86.73a37.54,37.54,0,0,0-5.37-7.42l.11.06C38.1,82.07,48,87.63,66.84,98.72l1.09.63c3.48,2,5.56,5.16,4.94,7.46-.81,3-5.93,4.73-14.06,4.73m-24.6,21.28-1.08.61c-3.49,2-7.25,2.25-8.93.56-2.19-2.21-1.12-7.51,2.94-14.54l3.78-6.55a4,4,0,0,0,3.25,1.3H58.81a38.21,38.21,0,0,0,9.12-.93.33.33,0,0,0-.1.06C63,116.25,53.26,122,34.21,132.82ZM21,87.5l0-1.23c0-4,1.69-7.41,4-8,3-.8,7.06,2.78,11.12,9.82L39.9,94.6a4,4,0,0,0-2.74,2.17L24.83,118.12a37.92,37.92,0,0,0-3.74,8.36.49.49,0,0,1,0-.12C21,120.72,20.84,109.41,21,87.5ZM40.7,69.74a36.61,36.61,0,1,0,36.61,36.61A36.62,36.62,0,0,0,40.7,69.74Z" transform="translate(-4.08 -69.74)" fill="#f58025"></path><path d="M113.81,79.73H89.62v2.36l.48,0c8.42,1,9.27,2.13,9.27,6.43v44.75H109V110.05h3.87c9.11,0,28.06,0,28.06-15.12S123.27,79.73,113.81,79.73Zm-1.18,26.2H109V88.56c0-4.08,0-4.7,7.78-4.7,8.75,0,13.57,3.93,13.57,11.07C130.31,104.62,121.37,105.93,112.63,105.93Z" transform="translate(-4.08 -69.74)" fill="#fff"></path><path d="M195.12,79.74h-5.63v41.77l-30-41.77H139.16v2.34l.48.06c8.23,1.07,9.28,1.44,9.28,7.35v43.83h6.17V88.4l32.32,44.92h8.25V79.74Z" transform="translate(-4.08 -69.74)" fill="#fff"></path><path d="M203,104.77c0,14.63,8.93,29.4,28.88,29.4,9.47,0,14.14-1,18.47-2.21l.4-.1v-4.4l-.74.2a51.68,51.68,0,0,1-12.74,1.91c-15.94,0-23.68-8.77-23.68-26.82,0-12.07,5.73-19.27,15.34-19.27,6.45,0,10.23,2.53,11.24,7.52l.09.44h10.56l-.08-.61c-.36-2.8-2.95-11.94-21.22-11.94C211.94,78.89,203,87.6,203,104.77Z" transform="translate(-4.08 -69.74)" fill="#fff"></path></svg>