<?xml version="1.0" encoding="utf-8"?>
<!-- Generator: Adobe Illustrator 24.0.0, SVG Export Plug-In . SVG Version: 6.00 Build 0)  -->
<svg version="1.1" xmlns="http://www.w3.org/2000/svg" xmlns:xlink="http://www.w3.org/1999/xlink" x="0px" y="0px"
	 viewBox="0 0 107 107" enable-background="new 0 0 107 107" xml:space="preserve">
<g id="Fast">
</g>
<g id="Easy">
</g>
<g id="Secure">
	<g>
		<g>
			<g id="XMLID_18_">
				<g>
					<g id="XMLID_57_">
						<g id="XMLID_58_">
							<g id="XMLID_59_">
								<path fill="#F58025" d="M38.22,76.47c-3.14,0-5.69-2.37-5.69-5.28V37.12c0-2.91,2.55-5.28,5.69-5.28h59.99
									c3.14,0,5.69,2.37,5.69,5.28V71.2c0,2.91-2.55,5.27-5.69,5.27H38.22z M38.22,35.31c-1.11,0-2.04,0.83-2.04,1.81V71.2
									c0,0.98,0.93,1.81,2.04,1.81h59.99c1.11,0,2.04-0.83,2.04-1.81V37.12c0-0.98-0.94-1.81-2.04-1.81H38.22z"/>
								<path fill="#F58025" d="M98.21,32.59c2.7,0,4.94,2.04,4.94,4.53V71.2c0,2.48-2.24,4.52-4.94,4.52H38.22
									c-2.7,0-4.94-2.04-4.94-4.53V37.12c0-2.48,2.23-4.53,4.94-4.53H98.21 M38.22,73.75h59.99c1.51,0,2.79-1.17,2.79-2.56V37.12
									c0-1.39-1.28-2.56-2.79-2.56H38.22c-1.51,0-2.79,1.17-2.79,2.56V71.2C35.42,72.59,36.7,73.75,38.22,73.75 M98.21,31.09
									H38.22c-3.55,0-6.44,2.7-6.44,6.03v34.07c0,3.32,2.89,6.03,6.44,6.03h59.99c3.55,0,6.44-2.7,6.44-6.02V37.12
									C104.65,33.8,101.76,31.09,98.21,31.09L98.21,31.09z M38.22,72.25c-0.68,0-1.29-0.5-1.29-1.06V37.12
									c0-0.55,0.62-1.06,1.29-1.06h59.99c0.68,0,1.29,0.5,1.29,1.06V71.2c0,0.55-0.62,1.06-1.29,1.06H38.22L38.22,72.25z"/>
							</g>
						</g>
					</g>
				</g>
			</g>
			<g id="XMLID_10_">
				<g id="XMLID_11_">
					<g id="XMLID_12_">
						<g id="XMLID_13_">
							<path fill="#F58025" d="M45.21,56.31c-0.41,0-0.75-0.34-0.75-0.75v-1.97c0-0.41,0.34-0.75,0.75-0.75h47.4
								c0.41,0,0.75,0.34,0.75,0.75v1.97c0,0.41-0.34,0.75-0.75,0.75H45.21z"/>
							<path fill="#F58025" d="M92.61,53.59v1.97h-47.4v-1.97H92.61 M92.61,52.09h-47.4c-0.83,0-1.5,0.67-1.5,1.5v1.97
								c0,0.83,0.67,1.5,1.5,1.5h47.4c0.83,0,1.5-0.67,1.5-1.5v-1.97C94.11,52.76,93.44,52.09,92.61,52.09L92.61,52.09z"/>
						</g>
					</g>
				</g>
			</g>
			<g id="XMLID_1_">
				<g id="XMLID_2_">
					<g id="XMLID_3_">
						<g id="XMLID_4_">
							<path fill="#F58025" d="M45.21,65.18c-0.41,0-0.75-0.34-0.75-0.75v-1.97c0-0.41,0.34-0.75,0.75-0.75h47.4
								c0.41,0,0.75,0.34,0.75,0.75v1.97c0,0.41-0.34,0.75-0.75,0.75H45.21z"/>
							<path fill="#F58025" d="M92.61,62.46v1.97h-47.4v-1.97H92.61 M92.61,60.96h-47.4c-0.83,0-1.5,0.67-1.5,1.5v1.97
								c0,0.83,0.67,1.5,1.5,1.5h47.4c0.83,0,1.5-0.67,1.5-1.5v-1.97C94.11,61.63,93.44,60.96,92.61,60.96L92.61,60.96z"/>
						</g>
					</g>
				</g>
			</g>
		</g>
		
			<rect x="44.64" y="40.25" fill="#F58025" stroke="#F58025" stroke-width="1.5" stroke-linecap="round" stroke-linejoin="round" stroke-miterlimit="10" width="12.65" height="7.15"/>
	</g>
	<g>
		<g>
			<path fill="#F58025" d="M48.5,104.25c-13.99-2.92-32.48-13.36-41.17-46.55C2.15,37.88,2.95,19.06,2.95,18.88
				c0-0.09,0.05-0.16,0.13-0.21C28.97,3.92,48.36,3.75,48.55,3.75s19.58,0.17,45.47,14.92c0.07,0.04,0.12,0.12,0.13,0.21
				c0,0.06,0.29,6.56-0.51,15.83c-0.01,0.1-0.07,0.18-0.16,0.21c-0.03,0.01-0.06,0.01-0.08,0.01c-0.07,0-0.13-0.03-0.18-0.07
				c-0.17-0.17-0.34-0.33-0.52-0.48c-0.2-0.17-0.38-0.3-0.58-0.43c-0.25-0.17-0.44-0.28-0.63-0.38l-0.03-0.29l-0.11,0.22
				c-0.18-0.09-0.36-0.18-0.55-0.26c0,0-0.23-0.09-0.23-0.09c-0.18-0.07-0.35-0.13-0.52-0.18c-0.08-0.02-0.15-0.04-0.23-0.06
				l-0.22-0.06c-0.11-0.03-0.23-0.06-0.34-0.08c-0.04,0.08-0.12,0.14-0.2,0.16l-1.12,0.01c-0.07,0-0.14-0.03-0.18-0.08
				c-0.05-0.05-0.07-0.12-0.07-0.19c0.29-3.67,0.4-9.03,0.43-10.83C67.81,11.48,49.94,8.6,48.55,8.6c-0.98,0-20.14,3.82-40.73,14.25
				c0.44,13.66,2.47,26.49,5.88,37.12c6.14,18.69,20.46,34.47,34.85,38.39c9.16-2.43,20.24-11.96,26.97-23.2
				c0.02-0.04,0.05-0.09,0.08-0.14c0.18-0.3,0.36-0.6,0.53-0.91c0.04-0.08,0.13-0.13,0.22-0.13c0.01,0,0.03,0,0.04,0
				c0.2,0.03,0.27,0.16,0.3,0.23c0.09,0.25-0.14,0.5-0.42,0.8c-0.04,0.04-0.07,0.08-0.11,0.12c0.22-0.01,0.28-0.04,0.38-0.08
				c0.11-0.05,0.25-0.11,0.54-0.18c0.02,0,0.04-0.01,0.06-0.01s0.04,0,0.06,0.01c0.72,0.18,1.5,0.28,2.31,0.28
				c1.4,0,2.69-0.28,3.83-0.83c0.03-0.02,0.07-0.03,0.11-0.03c0.06,0,0.13,0.03,0.18,0.07c0.08,0.07,0.09,0.19,0.05,0.28
				c-7.87,16.46-19.67,26.42-35.07,29.59c-0.02,0-0.03,0-0.05,0S48.52,104.25,48.5,104.25z"/>
			<path fill="#F58025" d="M48.55,4c0,0,19.22,0,45.35,14.89c0,0,0.29,6.44-0.51,15.8l0,0c-0.17-0.17-0.35-0.34-0.54-0.5
				c-0.01-0.01-0.02-0.01-0.03-0.02c-0.18-0.15-0.37-0.29-0.57-0.43c-0.02-0.02-0.05-0.03-0.08-0.05c-0.19-0.12-0.38-0.24-0.58-0.35
				c-0.05-0.03-0.1-0.05-0.15-0.07c-0.18-0.09-0.37-0.19-0.57-0.27c-0.08-0.03-0.16-0.06-0.24-0.09c-0.18-0.07-0.35-0.13-0.54-0.19
				c-0.12-0.03-0.24-0.06-0.36-0.09c-0.16-0.04-0.32-0.09-0.49-0.12c-0.17-0.03-0.35-0.05-0.52-0.08c-0.13-0.02-0.26-0.04-0.39-0.05
				c0,0-0.01,0-0.01,0c0-0.01-0.03-0.02-0.05-0.02c0.08-0.02,0.37-0.02,0.13-0.02c-0.22,0-0.18,0.01-0.13,0.02
				c-0.04,0.01-0.04,0.01,0.05,0.02c0.01,0.01-0.02,0.03-0.15,0.04c-0.07,0.01-0.13,0.02-0.2,0.03c-0.39,0.06,1.34,0.14,0.98,0.24
				c0,0-1.05,0-1.05,0c0.28-3.45,0.4-8.55,0.44-11C67.98,11.26,49.83,8.35,48.55,8.35S28.07,12.28,7.57,22.71
				c0.26,8.19,1.28,22.95,5.89,37.34c6.28,19.11,20.87,34.73,35.09,38.58c9.94-2.6,20.95-12.92,27.19-23.35
				c-0.03,0.08-0.01,0.13,0.11,0.13c0.84,0,0.56-0.11,1.28-0.28c0.72,0.18,1.51,0.28,2.37,0.28c1.52,0,2.83-0.32,3.93-0.86
				c-6.63,13.87-17.39,25.85-34.9,29.45C-0.25,93.83,3.2,18.89,3.2,18.89C29.34,4,48.55,4,48.55,4 M76.35,74.25
				c0.36,0.06-0.31,0.61-0.54,0.93C75.99,74.86,76.17,74.55,76.35,74.25 M75.81,75.17c-0.02,0.03-0.04,0.07-0.06,0.1
				C75.76,75.24,75.78,75.21,75.81,75.17 M48.55,3.5c-0.2,0-4.95,0.02-12.99,1.87c-7.4,1.71-19.06,5.36-32.61,13.08
				c-0.15,0.08-0.24,0.24-0.25,0.41C2.7,19.05,1.9,37.91,7.09,57.76c3.06,11.68,7.56,21.42,13.39,28.96
				c7.31,9.45,16.72,15.43,27.97,17.77c0.03,0.01,0.07,0.01,0.1,0.01c0.03,0,0.07,0,0.1-0.01C64.14,101.3,76,91.3,83.9,74.76
				c0.09-0.19,0.05-0.42-0.1-0.57c-0.1-0.1-0.22-0.15-0.35-0.15c-0.07,0-0.15,0.02-0.22,0.05c-1.1,0.53-2.35,0.81-3.72,0.81
				c-0.79,0-1.55-0.09-2.25-0.27c-0.04-0.01-0.08-0.02-0.12-0.02c-0.04,0-0.08,0-0.12,0.01c-0.06,0.01-0.11,0.03-0.16,0.04
				c0.09-0.17,0.13-0.34,0.06-0.53c-0.07-0.21-0.25-0.35-0.49-0.39c-0.03,0-0.05-0.01-0.08-0.01c-0.18,0-0.34,0.1-0.43,0.25
				c-0.17,0.3-0.35,0.6-0.52,0.9c-0.03,0.05-0.06,0.1-0.08,0.14c-6.69,11.17-17.66,20.63-26.75,23.07
				c-14.29-3.94-28.51-19.63-34.62-38.21c-3.38-10.56-5.41-23.31-5.86-36.89C28.57,12.64,47.58,8.85,48.55,8.85
				c0.14,0,17.86,2.23,39.3,13.14c-0.03,1.66-0.14,7.03-0.43,10.66c-0.01,0.14,0.04,0.28,0.13,0.38c0.09,0.1,0.23,0.16,0.37,0.16
				l0.57,0l0.48,0c0.05,0,0.09-0.01,0.14-0.02c0.1-0.03,0.18-0.07,0.24-0.12c0.06,0.01,0.12,0.03,0.18,0.04l0.11,0.03l0.12,0.03
				c0.07,0.02,0.14,0.03,0.21,0.06c0.18,0.05,0.34,0.12,0.51,0.18l0.1,0.04c0.04,0.02,0.09,0.03,0.13,0.05
				c0.18,0.08,0.36,0.16,0.53,0.25l0.07,0.03l0.07,0.04c0.19,0.1,0.37,0.21,0.54,0.32l0.35-0.37l-0.28,0.41
				c0.18,0.12,0.36,0.26,0.53,0.4c0.2,0.17,0.37,0.32,0.53,0.49c0.1,0.1,0.22,0.15,0.36,0.15c0.06,0,0.11-0.01,0.17-0.03
				c0.18-0.07,0.31-0.23,0.33-0.43c0.8-9.28,0.52-15.8,0.51-15.86c-0.01-0.17-0.1-0.33-0.25-0.41C80.6,10.73,68.93,7.08,61.54,5.37
				C53.51,3.52,48.75,3.5,48.55,3.5L48.55,3.5z"/>
		</g>
	</g>
</g>
</svg>
